<?xml version="1.0" ?><svg viewBox="0 0 32 32" xmlns="http://www.w3.org/2000/svg"><title/><g data-name="Layer 49" id="Layer_49"><path d="M16,15H10a1,1,0,0,1,0-2h6a1,1,0,0,1,0,2Z"/><path d="M13.17,24.17a10,10,0,1,1,7.07-2.93A10,10,0,0,1,13.17,24.17Zm0-18a8,8,0,1,0,5.66,2.33A8,8,0,0,0,13.17,6.18Z"/><path d="M23.78,27.78a3,3,0,0,1-2.12-.88l-4.41-4.41a1,1,0,0,1,.18-1.55,8.14,8.14,0,0,0,1.4-1.11h0a8.14,8.14,0,0,0,1.11-1.4,1,1,0,0,1,1.55-.18l4.41,4.41a3,3,0,0,1-2.12,5.12ZM19.5,21.91l3.57,3.58a1,1,0,0,0,1.42,0,1,1,0,0,0,0-1.42L20.91,20.5a7.85,7.85,0,0,1-.67.74A7.85,7.85,0,0,1,19.5,21.91Z"/><path d="M8.81,18.54C5.63,15.36,5.47,9.84,9,7.28c-.38.27-1.83.19-2.17.53A9,9,0,0,0,19.54,20.54c.34-.35.29-2,.56-2.35C17.69,21.53,12,21.71,8.81,18.54Z"/><polygon points="21.87 20.04 20.93 24.76 17.96 21.79 20.79 18.96 21.87 20.04"/></g></svg>